<svg xmlns="http://www.w3.org/2000/svg" xmlns:xlink="http://www.w3.org/1999/xlink" width="1200" zoomAndPan="magnify" viewBox="0 0 900 525.000007" height="700" preserveAspectRatio="xMidYMid meet" version="1.0"><defs><g/><clipPath id="0a52b92b0c"><path d="M 0.855469 0 L 899.144531 0 L 899.144531 524 L 0.855469 524 Z M 0.855469 0 " clip-rule="nonzero"/></clipPath><clipPath id="68e410f7b7"><path d="M 53.253906 108.789062 L 329.480469 108.789062 L 329.480469 385.011719 L 53.253906 385.011719 Z M 53.253906 108.789062 " clip-rule="nonzero"/></clipPath></defs><g clip-path="url(#0a52b92b0c)"><path fill="#ffffff" d="M 0.855469 0 L 899.144531 0 L 899.144531 524 L 0.855469 524 Z M 0.855469 0 " fill-opacity="1" fill-rule="nonzero"/><path fill="#ffffff" d="M 0.855469 0 L 899.144531 0 L 899.144531 524 L 0.855469 524 Z M 0.855469 0 " fill-opacity="1" fill-rule="nonzero"/></g><g fill="#171523" fill-opacity="1"><g transform="translate(329.389445, 368.105354)"><g><path d="M 55.609375 2.125 C 45.785156 2.125 36.28125 0.796875 27.09375 -1.859375 C 17.914062 -4.523438 10.539062 -7.992188 4.96875 -12.265625 L 14.75 -33.9375 C 20.082031 -30.03125 26.421875 -26.890625 33.765625 -24.515625 C 41.109375 -22.148438 48.453125 -20.96875 55.796875 -20.96875 C 63.960938 -20.96875 70 -22.179688 73.90625 -24.609375 C 77.820312 -27.035156 79.78125 -30.265625 79.78125 -34.296875 C 79.78125 -37.253906 78.625 -39.707031 76.3125 -41.65625 C 74.007812 -43.613281 71.050781 -45.1875 67.4375 -46.375 C 63.820312 -47.5625 58.929688 -48.863281 52.765625 -50.28125 C 43.296875 -52.53125 35.539062 -54.78125 29.5 -57.03125 C 23.457031 -59.28125 18.273438 -62.894531 13.953125 -67.875 C 9.628906 -72.851562 7.46875 -79.488281 7.46875 -87.78125 C 7.46875 -95 9.421875 -101.539062 13.328125 -107.40625 C 17.234375 -113.269531 23.125 -117.921875 31 -121.359375 C 38.882812 -124.796875 48.507812 -126.515625 59.875 -126.515625 C 67.8125 -126.515625 75.570312 -125.566406 83.15625 -123.671875 C 90.738281 -121.773438 97.375 -119.050781 103.0625 -115.5 L 94.171875 -93.640625 C 82.679688 -100.160156 71.191406 -103.421875 59.703125 -103.421875 C 51.648438 -103.421875 45.695312 -102.113281 41.84375 -99.5 C 38 -96.894531 36.078125 -93.460938 36.078125 -89.203125 C 36.078125 -84.929688 38.296875 -81.757812 42.734375 -79.6875 C 47.171875 -77.613281 53.953125 -75.570312 63.078125 -73.5625 C 72.554688 -71.3125 80.316406 -69.0625 86.359375 -66.8125 C 92.398438 -64.5625 97.582031 -61.003906 101.90625 -56.140625 C 106.226562 -51.285156 108.390625 -44.710938 108.390625 -36.421875 C 108.390625 -29.316406 106.40625 -22.832031 102.4375 -16.96875 C 98.46875 -11.101562 92.515625 -6.453125 84.578125 -3.015625 C 76.640625 0.410156 66.984375 2.125 55.609375 2.125 Z M 55.609375 2.125 "/></g></g></g><g fill="#171523" fill-opacity="1"><g transform="translate(442.738565, 368.105354)"><g><path d="M 128.828125 -124.375 L 128.828125 0 L 100.03125 0 L 100.03125 -51 L 43.53125 -51 L 43.53125 0 L 14.75 0 L 14.75 -124.375 L 43.53125 -124.375 L 43.53125 -75.34375 L 100.03125 -75.34375 L 100.03125 -124.375 Z M 128.828125 -124.375 "/></g></g></g><g fill="#171523" fill-opacity="1"><g transform="translate(586.290432, 368.105354)"><g><path d="M 74.984375 2.125 C 62.066406 2.125 50.425781 -0.65625 40.0625 -6.21875 C 29.695312 -11.789062 21.582031 -19.460938 15.71875 -29.234375 C 9.863281 -39.003906 6.9375 -49.988281 6.9375 -62.1875 C 6.9375 -74.394531 9.863281 -85.382812 15.71875 -95.15625 C 21.582031 -104.925781 29.695312 -112.59375 40.0625 -118.15625 C 50.425781 -123.726562 62.066406 -126.515625 74.984375 -126.515625 C 87.898438 -126.515625 99.507812 -123.726562 109.8125 -118.15625 C 120.113281 -112.59375 128.222656 -104.925781 134.140625 -95.15625 C 140.066406 -85.382812 143.03125 -74.394531 143.03125 -62.1875 C 143.03125 -49.988281 140.066406 -39.003906 134.140625 -29.234375 C 128.222656 -19.460938 120.113281 -11.789062 109.8125 -6.21875 C 99.507812 -0.65625 87.898438 2.125 74.984375 2.125 Z M 74.984375 -22.390625 C 82.328125 -22.390625 88.957031 -24.078125 94.875 -27.453125 C 100.800781 -30.828125 105.453125 -35.535156 108.828125 -41.578125 C 112.203125 -47.617188 113.890625 -54.488281 113.890625 -62.1875 C 113.890625 -69.882812 112.203125 -76.753906 108.828125 -82.796875 C 105.453125 -88.835938 100.800781 -93.546875 94.875 -96.921875 C 88.957031 -100.304688 82.328125 -102 74.984375 -102 C 67.640625 -102 61.003906 -100.304688 55.078125 -96.921875 C 49.160156 -93.546875 44.515625 -88.835938 41.140625 -82.796875 C 37.765625 -76.753906 36.078125 -69.882812 36.078125 -62.1875 C 36.078125 -54.488281 37.765625 -47.617188 41.140625 -41.578125 C 44.515625 -35.535156 49.160156 -30.828125 55.078125 -27.453125 C 61.003906 -24.078125 67.640625 -22.390625 74.984375 -22.390625 Z M 74.984375 -22.390625 "/></g></g></g><g fill="#171523" fill-opacity="1"><g transform="translate(736.238164, 368.105354)"><g><path d="M 68.59375 -124.375 C 79.601562 -124.375 89.164062 -122.535156 97.28125 -118.859375 C 105.394531 -115.191406 111.644531 -109.984375 116.03125 -103.234375 C 120.414062 -96.484375 122.609375 -88.488281 122.609375 -79.25 C 122.609375 -70.125 120.414062 -62.15625 116.03125 -55.34375 C 111.644531 -48.53125 105.394531 -43.316406 97.28125 -39.703125 C 89.164062 -36.097656 79.601562 -34.296875 68.59375 -34.296875 L 43.53125 -34.296875 L 43.53125 0 L 14.75 0 L 14.75 -124.375 Z M 66.984375 -57.75 C 75.628906 -57.75 82.203125 -59.613281 86.703125 -63.34375 C 91.210938 -67.070312 93.46875 -72.375 93.46875 -79.25 C 93.46875 -86.238281 91.210938 -91.597656 86.703125 -95.328125 C 82.203125 -99.054688 75.628906 -100.921875 66.984375 -100.921875 L 43.53125 -100.921875 L 43.53125 -57.75 Z M 66.984375 -57.75 "/></g></g></g><g clip-path="url(#68e410f7b7)"><path fill="#493d9a" d="M 283.460938 108.789062 L 99.296875 108.789062 C 73.910156 108.789062 53.253906 129.441406 53.253906 154.832031 L 53.253906 338.996094 C 53.253906 364.382812 73.910156 385.035156 99.296875 385.035156 L 283.460938 385.035156 C 308.847656 385.035156 329.503906 364.382812 329.503906 338.996094 L 329.503906 154.832031 C 329.503906 129.441406 308.847656 108.789062 283.460938 108.789062 Z M 313.253906 338.996094 C 313.253906 355.421875 299.890625 368.785156 283.460938 368.785156 L 99.296875 368.785156 C 82.871094 368.785156 69.503906 355.421875 69.503906 338.996094 L 69.503906 154.832031 C 69.503906 138.402344 82.871094 125.039062 99.296875 125.039062 L 283.460938 125.039062 C 299.890625 125.039062 313.253906 138.402344 313.253906 154.832031 Z M 313.253906 338.996094 " fill-opacity="1" fill-rule="nonzero"/></g><path fill="#493d9a" d="M 271.003906 152.664062 C 269.46875 150.617188 267.0625 149.414062 264.503906 149.414062 L 118.253906 149.414062 C 115.699219 149.414062 113.289062 150.617188 111.753906 152.664062 L 87.378906 185.164062 C 86.363281 186.523438 85.753906 188.277344 85.753906 190.039062 L 85.753906 214.414062 C 85.753906 226.414062 92.300781 236.910156 102.003906 242.539062 L 102.003906 309.519531 C 102.003906 328.757812 117.65625 344.410156 136.894531 344.410156 C 146.539062 344.410156 236.058594 344.410156 245.863281 344.410156 C 265.101562 344.410156 280.753906 328.757812 280.753906 309.519531 L 280.753906 242.539062 C 290.457031 236.910156 297.003906 226.414062 297.003906 214.414062 L 297.003906 190.039062 C 297.003906 188.351562 296.441406 186.582031 295.378906 185.164062 Z M 264.503906 309.519531 C 264.503906 319.800781 256.140625 328.160156 245.863281 328.160156 L 223.878906 328.160156 L 223.878906 271.289062 C 223.878906 266.800781 220.242188 263.164062 215.753906 263.164062 L 167.003906 263.164062 C 162.515625 263.164062 158.878906 266.800781 158.878906 271.289062 L 158.878906 328.160156 L 136.894531 328.160156 C 126.617188 328.160156 118.253906 319.800781 118.253906 309.519531 L 118.253906 246.914062 C 127.957031 246.914062 136.667969 242.636719 142.628906 235.875 C 148.589844 242.636719 157.304688 246.914062 167.003906 246.914062 C 176.703125 246.914062 185.417969 242.636719 191.378906 235.875 C 197.339844 242.636719 206.054688 246.914062 215.753906 246.914062 C 225.453125 246.914062 234.167969 242.636719 240.128906 235.875 C 246.089844 242.636719 254.804688 246.914062 264.503906 246.914062 Z M 280.753906 214.414062 C 280.753906 223.375 273.464844 230.664062 264.503906 230.664062 C 255.542969 230.664062 248.253906 223.375 248.253906 214.414062 L 248.253906 198.164062 C 248.253906 193.675781 244.617188 190.039062 240.128906 190.039062 C 235.640625 190.039062 232.003906 193.675781 232.003906 198.164062 L 232.003906 214.414062 C 232.003906 223.375 224.714844 230.664062 215.753906 230.664062 C 206.792969 230.664062 199.503906 223.375 199.503906 214.414062 L 199.503906 198.164062 C 199.503906 193.675781 195.867188 190.039062 191.378906 190.039062 C 186.890625 190.039062 183.253906 193.675781 183.253906 198.164062 L 183.253906 214.414062 C 183.253906 223.375 175.964844 230.664062 167.003906 230.664062 C 158.042969 230.664062 150.753906 223.375 150.753906 214.414062 L 150.753906 198.164062 C 150.753906 193.675781 147.117188 190.039062 142.628906 190.039062 C 138.144531 190.039062 134.503906 193.675781 134.503906 198.164062 L 134.503906 214.414062 C 134.503906 223.375 127.214844 230.664062 118.253906 230.664062 C 109.292969 230.664062 102.003906 223.375 102.003906 214.414062 L 102.003906 192.746094 L 122.316406 165.664062 L 260.441406 165.664062 L 280.753906 192.746094 Z M 280.753906 214.414062 " fill-opacity="1" fill-rule="nonzero"/><g fill="#171523" fill-opacity="1"><g transform="translate(337.06503, 225.276159)"><g><path d="M 74.703125 -7.84375 L 74.703125 0 L 13.984375 0 L 13.984375 -85.875 L 72.859375 -85.875 L 72.859375 -78.015625 L 23.0625 -78.015625 L 23.0625 -47.46875 L 67.46875 -47.46875 L 67.46875 -39.75 L 23.0625 -39.75 L 23.0625 -7.84375 Z M 74.703125 -7.84375 "/></g></g></g><g fill="#171523" fill-opacity="1"><g transform="translate(419.125161, 225.276159)"><g><path d="M 67.84375 -22.9375 L 20 -22.9375 L 9.6875 0 L 0.25 0 L 39.5 -85.875 L 48.453125 -85.875 L 87.703125 0 L 78.140625 0 Z M 64.53125 -30.296875 L 43.921875 -76.421875 L 23.3125 -30.296875 Z M 64.53125 -30.296875 "/></g></g></g><g fill="#171523" fill-opacity="1"><g transform="translate(507.073014, 225.276159)"><g><path d="M 37.65625 0.734375 C 31.28125 0.734375 25.164062 -0.285156 19.3125 -2.328125 C 13.46875 -4.367188 8.953125 -7.066406 5.765625 -10.421875 L 9.328125 -17.421875 C 12.429688 -14.316406 16.554688 -11.800781 21.703125 -9.875 C 26.859375 -7.957031 32.175781 -7 37.65625 -7 C 45.34375 -7 51.109375 -8.40625 54.953125 -11.21875 C 58.796875 -14.039062 60.71875 -17.703125 60.71875 -22.203125 C 60.71875 -25.640625 59.675781 -28.378906 57.59375 -30.421875 C 55.507812 -32.460938 52.953125 -34.035156 49.921875 -35.140625 C 46.898438 -36.242188 42.691406 -37.453125 37.296875 -38.765625 C 30.828125 -40.398438 25.671875 -41.972656 21.828125 -43.484375 C 17.984375 -44.992188 14.691406 -47.300781 11.953125 -50.40625 C 9.210938 -53.519531 7.84375 -57.734375 7.84375 -63.046875 C 7.84375 -67.390625 8.988281 -71.335938 11.28125 -74.890625 C 13.570312 -78.453125 17.085938 -81.296875 21.828125 -83.421875 C 26.578125 -85.546875 32.46875 -86.609375 39.5 -86.609375 C 44.40625 -86.609375 49.207031 -85.929688 53.90625 -84.578125 C 58.613281 -83.234375 62.6875 -81.375 66.125 -79 L 63.046875 -71.765625 C 59.453125 -74.140625 55.609375 -75.914062 51.515625 -77.09375 C 47.429688 -78.28125 43.425781 -78.875 39.5 -78.875 C 31.976562 -78.875 26.316406 -77.421875 22.515625 -74.515625 C 18.710938 -71.617188 16.8125 -67.878906 16.8125 -63.296875 C 16.8125 -59.859375 17.851562 -57.097656 19.9375 -55.015625 C 22.019531 -52.929688 24.632812 -51.335938 27.78125 -50.234375 C 30.9375 -49.128906 35.171875 -47.921875 40.484375 -46.609375 C 46.773438 -45.054688 51.863281 -43.523438 55.75 -42.015625 C 59.632812 -40.503906 62.925781 -38.210938 65.625 -35.140625 C 68.320312 -32.078125 69.671875 -27.925781 69.671875 -22.6875 C 69.671875 -18.351562 68.503906 -14.40625 66.171875 -10.84375 C 63.847656 -7.289062 60.269531 -4.472656 55.4375 -2.390625 C 50.613281 -0.304688 44.6875 0.734375 37.65625 0.734375 Z M 37.65625 0.734375 "/></g></g></g><g fill="#171523" fill-opacity="1"><g transform="translate(582.509459, 225.276159)"><g><path d="M 43.421875 -29.6875 L 43.421875 0 L 34.46875 0 L 34.46875 -29.6875 L 0.125 -85.875 L 9.8125 -85.875 L 39.25 -37.65625 L 68.703125 -85.875 L 77.78125 -85.875 Z M 43.421875 -29.6875 "/></g></g></g></svg>