<?xml version="1.0" encoding="utf-8"?>
<svg width="150" height="150" viewBox="0 0 150 150" fill="none" xmlns="http://www.w3.org/2000/svg">
  <g>
    <rect width="150" height="150" />
    <g id="Group">
      <path id="Shape" d="M150 0L150 150L0 150L0 0L150 0ZM78.7126 145.362L78.6376 145.375L78.1939 145.594L78.0688 145.619L77.9813 145.594C77.9813 145.594 77.5376 145.369 77.5376 145.369C77.4709 145.352 77.4209 145.365 77.3876 145.406C77.3876 145.406 77.3626 145.469 77.3626 145.469L77.2563 148.144L77.2876 148.269L77.3501 148.35L78.0001 148.812L78.0939 148.837L78.1689 148.812L78.8189 148.35L78.8939 148.25L78.9189 148.144C78.9189 148.144 78.8126 145.475 78.8126 145.475C78.7959 145.408 78.7626 145.371 78.7126 145.362M80.3627 144.656L80.2752 144.669L79.1252 145.25L79.0627 145.313L79.0439 145.381L79.1564 148.069L79.1877 148.144L79.2377 148.194C79.2377 148.194 80.4939 148.769 80.4939 148.769C80.5731 148.79 80.6335 148.773 80.6752 148.719C80.6752 148.719 80.7002 148.631 80.7002 148.631C80.7002 148.631 80.4877 144.794 80.4877 144.794C80.4669 144.719 80.4252 144.673 80.3627 144.656M75.8939 144.669C75.8366 144.634 75.7623 144.651 75.7251 144.706C75.7251 144.706 75.6876 144.794 75.6876 144.794C75.6876 144.794 75.4751 148.631 75.4751 148.631C75.4793 148.706 75.5147 148.756 75.5814 148.781C75.5814 148.781 75.6751 148.769 75.6751 148.769L76.9314 148.188L76.9939 148.138L77.0126 148.069L77.1251 145.381L77.1064 145.306L77.0439 145.244C77.0439 145.244 75.8939 144.669 75.8939 144.669Z" />
      <path id="Path" d="M93.8269 0C90.3751 0 87.5769 2.79822 87.5769 6.25C87.5769 9.70178 90.3751 12.5 93.8269 12.5C93.8269 12.5 103.739 12.5 103.739 12.5L75.0769 41.1625C75.0769 41.1625 51.3707 17.4563 51.3707 17.4563C48.93 15.0164 44.9738 15.0164 42.5332 17.4563C42.5332 17.4563 1.90816 58.0813 1.90816 58.0813C0.283459 59.6505 -0.368121 61.9742 0.203854 64.1594C0.775828 66.3446 2.48235 68.0511 4.66752 68.6231C6.85268 69.195 9.17645 68.5434 10.7457 66.9187C10.7457 66.9187 46.9519 30.7125 46.9519 30.7125C46.9519 30.7125 70.6582 54.4187 70.6582 54.4187C73.0988 56.8586 77.0551 56.8586 79.4957 54.4187C79.4957 54.4187 112.577 21.3375 112.577 21.3375C112.577 21.3375 112.577 31.25 112.577 31.25C112.577 34.7018 115.375 37.5 118.827 37.5C122.279 37.5 125.077 34.7018 125.077 31.25C125.077 31.25 125.077 6.25 125.077 6.25C125.077 2.79822 122.279 0 118.827 0C118.827 0 93.8269 0 93.8269 0Z" fill="#7A71E3" fill-rule="evenodd" transform="translate(12.423 37.5)" />
    </g>
  </g>
</svg>