<?xml version="1.0" encoding="utf-8"?>
<svg width="100" height="100" viewBox="0 0 100 100" fill="none" xmlns="http://www.w3.org/2000/svg">
  <g>
    <rect width="100" height="100" />
    <g id="Group" transform="translate(12.504 8.333)">
      <path id="Shape" d="M2.15417 0.474609L2.10834 0.482948L1.8125 0.628777L1.72917 0.645447L1.67083 0.628777C1.67083 0.628777 1.375 0.482948 1.375 0.482948C1.33055 0.469063 1.29723 0.475998 1.275 0.503777C1.275 0.503777 1.25834 0.545441 1.25834 0.545441L1.1875 2.32877L1.20833 2.41211L1.25 2.46628L1.68333 2.77461L1.74583 2.79128L1.79584 2.77461L2.22917 2.46628L2.27917 2.3996L2.29584 2.32877C2.29584 2.32877 2.225 0.549606 2.225 0.549606C2.21389 0.505157 2.19028 0.480164 2.15417 0.474609M3.25856 0.00378418L3.2044 0.0121231L2.43356 0.39962L2.3919 0.441292L2.37939 0.487122L2.45439 2.27879L2.47523 2.32879L2.50856 2.35796C2.50856 2.35796 3.34606 2.74545 3.34606 2.74545C3.39884 2.75934 3.43912 2.74823 3.4669 2.71212C3.4669 2.71212 3.48356 2.65379 3.48356 2.65379C3.48356 2.65379 3.34189 0.095459 3.34189 0.095459C3.32801 0.0454559 3.30022 0.0149002 3.25856 0.00379181M0.279167 0.0120773C0.24102 -0.0110474 0.191433 -2.28882e-05 0.166668 0.0370789C0.166668 0.0370789 0.141666 0.0954132 0.141666 0.0954132C0.141666 0.0954132 0 2.65375 0 2.65375C0.0027771 2.70374 0.0263901 2.73708 0.0708351 2.75375C0.0708351 2.75375 0.133335 2.74541 0.133335 2.74541L0.970837 2.35791L1.0125 2.32458L1.02917 2.27875L1.1 0.487083L1.0875 0.437088L1.04583 0.395416C1.04583 0.395416 0.279167 0.0120773 0.279167 0.0120773Z" transform="translate(37.813 88.1)" />
      <path id="Shape" d="M58.3296 0C65.2331 0 70.8296 5.59644 70.8296 12.5C70.8296 12.5 70.8296 62.5 70.8296 62.5C72.8425 62.502 74.5662 63.9427 74.9253 65.9234C75.2843 67.904 74.1762 69.8581 72.2921 70.5667C72.2921 70.5667 38.9587 83.0667 38.9587 83.0667C38.0158 83.4201 36.9767 83.4201 36.0337 83.0667C36.0337 83.0667 2.70041 70.5667 2.70041 70.5667C0.816323 69.8581 -0.291856 67.904 0.067237 65.9234C0.426329 63.9427 2.15001 62.502 4.16292 62.5C4.16292 62.5 4.16292 12.5 4.16292 12.5C4.16292 5.59644 9.75936 0 16.6629 0C16.6629 0 58.3296 0 58.3296 0ZM58.3294 8.33337C58.3294 8.33337 16.6628 8.33337 16.6628 8.33337C14.5504 8.33365 12.7724 9.91465 12.5253 12.0125C12.5253 12.0125 12.4961 12.5 12.4961 12.5L12.4961 65.3417L37.4961 74.7167L62.4961 65.3417C62.4961 65.3417 62.4961 12.5 62.4961 12.5C62.4954 10.3868 60.914 8.60914 58.816 8.36244C58.816 8.36244 58.3294 8.33337 58.3294 8.33337ZM37.4961 12.5C39.6085 12.5003 41.3865 14.0813 41.6336 16.1792C41.6336 16.1792 41.6628 16.6667 41.6628 16.6667L41.6628 20.8333C41.6628 20.8333 49.9961 20.8333 49.9961 20.8333C52.2007 20.8358 54.0218 22.555 54.151 24.7558C54.2802 26.9566 52.6728 28.8771 50.4836 29.1375C50.4836 29.1375 49.9961 29.1667 49.9961 29.1667C49.9961 29.1667 29.1628 29.1667 29.1628 29.1667C28.0837 29.1647 27.1817 29.9871 27.0842 31.0618C26.9867 32.1365 27.7259 33.1077 28.7878 33.3C28.7878 33.3 29.1628 33.3333 29.1628 33.3333C29.1628 33.3333 45.8295 33.3333 45.8295 33.3333C51.4592 33.3196 56.0811 37.7814 56.2659 43.4081C56.4506 49.0348 52.1313 53.7902 46.5128 54.1458C46.5128 54.1458 45.8295 54.1667 45.8295 54.1667L41.6628 54.1667C41.6628 54.1667 41.6628 58.3333 41.6628 58.3333C41.6604 60.5378 39.9412 62.359 37.7404 62.4882C35.5396 62.6175 33.6191 61.01 33.3586 58.8209C33.3586 58.8209 33.3295 58.3333 33.3295 58.3333L33.3295 54.1667C33.3295 54.1667 24.9961 54.1667 24.9961 54.1667C22.7916 54.1642 20.9705 52.445 20.8413 50.2442C20.7121 48.0434 22.3195 46.1229 24.5086 45.8625C24.5086 45.8625 24.9961 45.8333 24.9961 45.8333C24.9961 45.8333 45.8295 45.8333 45.8295 45.8333C46.9086 45.8353 47.8106 45.0129 47.9081 43.9382C48.0056 42.8635 47.2663 41.8923 46.2045 41.7C46.2045 41.7 45.8295 41.6667 45.8295 41.6667C45.8295 41.6667 29.1628 41.6667 29.1628 41.6667C23.5331 41.6804 18.9112 37.2186 18.7264 31.5919C18.5417 25.9652 22.861 21.2098 28.4795 20.8542C28.4795 20.8542 29.1628 20.8333 29.1628 20.8333L33.3295 20.8333C33.3295 20.8333 33.3295 16.6667 33.3295 16.6667C33.3295 14.3655 35.195 12.5 37.4961 12.5C37.4961 12.5 37.4961 12.5 37.4961 12.5Z" fill="#7A71E3" />
    </g>
  </g>
</svg>