<?xml version="1.0" encoding="utf-8"?>
<svg width="100" height="100" viewBox="0 0 100 100" fill="none" xmlns="http://www.w3.org/2000/svg">
  <g>
    <rect width="100" height="100" />
    <g id="Group" transform="translate(8.728 8.333)">
      <path id="Shape" d="M2.15834 0.474586L2.10834 0.482925L1.8125 0.628754L1.72917 0.645424L1.67083 0.628754C1.67083 0.628754 1.375 0.47876 1.375 0.47876C1.33055 0.467651 1.29723 0.475983 1.275 0.503761C1.275 0.503761 1.25834 0.545425 1.25834 0.545425L1.1875 2.32876L1.20833 2.41209L1.25 2.46626L1.68333 2.7746L1.74583 2.79126L1.79584 2.7746L2.22917 2.46626L2.27917 2.3996L2.29584 2.32876C2.29584 2.32876 2.225 0.549591 2.225 0.549591C2.21389 0.505142 2.19167 0.480148 2.15834 0.474594M3.25856 0.00378418L3.20023 0.0121231L2.43356 0.39962L2.3919 0.441292L2.37939 0.487122L2.45439 2.27879L2.47523 2.32879L2.50856 2.36211C2.50856 2.36211 3.34606 2.74545 3.34606 2.74545C3.39884 2.75933 3.43912 2.74822 3.4669 2.71211C3.4669 2.71211 3.48356 2.65378 3.48356 2.65378C3.48356 2.65378 3.34189 0.0954514 3.34189 0.0954514C3.32801 0.0426712 3.30022 0.0121231 3.25856 0.00378418M0.279167 0.0120773C0.24102 -0.0110474 0.191433 -2.28882e-05 0.166668 0.0370789C0.166668 0.0370789 0.141666 0.0954132 0.141666 0.0954132C0.141666 0.0954132 0 2.65375 0 2.65375C0.0027771 2.70374 0.0263901 2.73708 0.0708351 2.75375C0.0708351 2.75375 0.133335 2.74541 0.133335 2.74541L0.970837 2.35791L1.0125 2.32458L1.02501 2.27875L1.1 0.487083L1.0875 0.437088L1.04583 0.395416C1.04583 0.395416 0.279167 0.0120773 0.279167 0.0120773Z" transform="translate(41.589 88.1)" />
      <path id="Shape" d="M29.2182 14.3667C31.7099 7.07505 41.7849 6.85422 44.7391 13.7042C44.7391 13.7042 44.9891 14.3709 44.9891 14.3709C44.9891 14.3709 48.3516 24.2042 48.3516 24.2042C49.9107 28.767 53.3694 32.4309 57.8349 34.25C57.8349 34.25 58.7391 34.5875 58.7391 34.5875C58.7391 34.5875 68.5724 37.9459 68.5724 37.9459C75.8641 40.4375 76.0849 50.5125 69.2391 53.4667C69.2391 53.4667 68.5724 53.7167 68.5724 53.7167C68.5724 53.7167 58.7391 57.0792 58.7391 57.0792C54.1747 58.6373 50.5091 62.0962 48.6891 66.5625C48.6891 66.5625 48.3516 67.4625 48.3516 67.4625C48.3516 67.4625 44.9932 77.3 44.9932 77.3C42.5016 84.5917 32.4266 84.8125 29.4766 77.9667C29.4766 77.9667 29.2182 77.3 29.2182 77.3C29.2182 77.3 25.8599 67.4667 25.8599 67.4667C24.3018 62.9024 20.8429 59.2368 16.3766 57.4167C16.3766 57.4167 15.4766 57.0792 15.4766 57.0792C15.4766 57.0792 5.64324 53.7209 5.64324 53.7209C-1.65259 51.2292 -1.87343 41.1542 4.97657 38.2042C4.97657 38.2042 5.64324 37.9459 5.64324 37.9459C5.64324 37.9459 15.4766 34.5875 15.4766 34.5875C20.0393 33.0284 23.7032 29.5697 25.5224 25.1042C25.5224 25.1042 25.8599 24.2042 25.8599 24.2042C25.8599 24.2042 29.2182 14.3667 29.2182 14.3667ZM70.4391 7.61294e-07C72.0294 -4.20576e-06 73.4811 0.90524 74.1808 2.33333C74.1808 2.33333 74.3808 2.82083 74.3808 2.82083L75.8391 7.09583C75.8391 7.09583 80.1183 8.55417 80.1183 8.55417C81.7159 9.09693 82.8284 10.5496 82.9361 12.2334C83.0438 13.9172 82.1254 15.4998 80.61 16.2417C80.61 16.2417 80.1183 16.4417 80.1183 16.4417L75.8433 17.9C75.8433 17.9 74.385 22.1792 74.385 22.1792C73.8412 23.7763 72.3881 24.8879 70.7043 24.9947C69.0205 25.1014 67.4386 24.1823 66.6975 22.6667C66.6975 22.6667 66.4975 22.1792 66.4975 22.1792L65.0391 17.9042C65.0391 17.9042 60.76 16.4458 60.76 16.4458C59.1624 15.9031 58.0498 14.4504 57.9421 12.7666C57.8344 11.0828 58.7529 9.50019 60.2683 8.75833C60.2683 8.75833 60.76 8.55833 60.76 8.55833L65.035 7.1C65.035 7.1 66.4933 2.82083 66.4933 2.82083C67.0693 1.133 68.6557 -0.00107262 70.4391 7.61294e-07C70.4391 7.61294e-07 70.4391 7.61294e-07 70.4391 7.61294e-07Z" fill="#7A71E3" />
    </g>
  </g>
</svg>